<svg width="48" height="48" viewBox="0 0 48 48" fill="none" xmlns="http://www.w3.org/2000/svg">
<g clip-path="url(#clip0_200_1332)">
<path d="M24 6C33.9414 6 42 14.0586 42 24C42 33.9414 33.9414 42 24 42C14.0586 42 6 33.9414 6 24C6 14.0586 14.0586 6 24 6ZM24 9.6C16.0476 9.6 9.6 16.0476 9.6 24C9.6 31.9524 16.0476 38.4 24 38.4C31.9524 38.4 38.4 31.9524 38.4 24C38.4 16.0476 31.9524 9.6 24 9.6ZM30.8994 15.6066C31.326 15.3078 31.9056 15.3582 32.2728 15.7272C32.64 16.0944 32.6868 16.674 32.3862 17.0952C28.4622 22.578 26.3022 25.5156 25.9098 25.9098C24.855 26.9628 23.145 26.9628 22.0902 25.9098C21.0372 24.855 21.0372 23.145 22.0902 22.0902C22.7634 21.4188 25.6992 19.257 30.8994 15.6066ZM33.9 22.2C34.8936 22.2 35.7 23.0064 35.7 24C35.7 24.9936 34.8936 25.8 33.9 25.8C32.9064 25.8 32.1 24.9936 32.1 24C32.1 23.0064 32.9064 22.2 33.9 22.2ZM14.1 22.2C15.0936 22.2 15.9 23.0064 15.9 24C15.9 24.9936 15.0936 25.8 14.1 25.8C13.1064 25.8 12.3 24.9936 12.3 24C12.3 23.0064 13.1064 22.2 14.1 22.2ZM18.2724 15.7272C18.9744 16.4292 18.9744 17.5686 18.2724 18.2724C17.5704 18.9744 16.4292 18.9744 15.7272 18.2724C15.0252 17.5704 15.0252 16.4292 15.7272 15.7272C16.4292 15.0252 17.5686 15.0252 18.2724 15.7272ZM24 12.3C24.9936 12.3 25.8 13.1064 25.8 14.1C25.8 15.0936 24.9936 15.9 24 15.9C23.0064 15.9 22.2 15.0936 22.2 14.1C22.2 13.1064 23.0064 12.3 24 12.3Z" fill="black"/>
</g>
<defs>
<clipPath id="clip0_200_1332">
<rect width="48" height="48" fill="white"/>
</clipPath>
</defs>
</svg>
