<svg width="24" height="24" viewBox="0 0 24 24" fill="none" xmlns="http://www.w3.org/2000/svg">
<path d="M12 4.58323L7.875 8.70823C7.05926 9.52406 6.50374 10.5635 6.27871 11.695C6.05368 12.8265 6.16923 13.9994 6.61076 15.0653C7.05229 16.1311 7.79997 17.0421 8.75924 17.6831C9.71851 18.324 10.8463 18.6661 12 18.6661C13.1537 18.6661 14.2815 18.324 15.2408 17.6831C16.2 17.0421 16.9477 16.1311 17.3892 15.0653C17.8308 13.9994 17.9463 12.8265 17.7213 11.695C17.4963 10.5635 16.9408 9.52406 16.125 8.70823L12 4.58323ZM12 2.22656L17.3033 7.5299C18.3522 8.57879 19.0665 9.91517 19.3559 11.37C19.6453 12.8249 19.4968 14.3329 18.9291 15.7033C18.3614 17.0738 17.4001 18.2451 16.1668 19.0692C14.9334 19.8933 13.4834 20.3332 12 20.3332C10.5166 20.3332 9.0666 19.8933 7.83324 19.0692C6.59987 18.2451 5.63858 17.0738 5.07092 15.7033C4.50326 14.3329 4.35473 12.8249 4.64411 11.37C4.93349 9.91517 5.64779 8.57879 6.69667 7.5299L12 2.22656Z" fill="black"/>
</svg>
